PathFileType	4	(X/Y/Z)	TVC_36_BWA_04_walk_RCNL2025.trc
DataRate	CameraRate	NumFrames	NumMarkers	Units	OrigDataRate	OrigDataStartFrame	OrigNumFrames
100	100	8	27	mm	100	261	695
Frame#	Time	R_Shoulder			L_Shoulder			C7			J_Notch			R_Elbow			L_Elbow			R_Wrist			L_Wrist			R_Asis			L_Asis			R_Psis			L_Psis			Sacral			Thoracic			Sternum			R_Thigh_Lateral			R_Knee_Lateral			R_Shank_Lateral			R_Ankle_Lateral			R_Heel			R_Toe			L_Thigh_Lateral			L_Knee_Lateral			L_Shank_Lateral			L_Ankle_Lateral			L_Heel			L_Toe		
		X1	Y1	Z1	X2	Y2	Z2	X3	Y3	Z3	X4	Y4	Z4	X5	Y5	Z5	X6	Y6	Z6	X7	Y7	Z7	X8	Y8	Z8	X9	Y9	Z9	X10	Y10	Z10	X11	Y11	Z11	X12	Y12	Z12	X13	Y13	Z13	X14	Y14	Z14	X15	Y15	Z15	X16	Y16	Z16	X17	Y17	Z17	X18	Y18	Z18	X19	Y19	Z19	X20	Y20	Z20	X21	Y21	Z21	X22	Y22	Z22	X23	Y23	Z23	X24	Y24	Z24	X25	Y25	Z25	X26	Y26	Z26	X27	Y27	Z27
261	2.60000000	381.185394	1393.761597	411.776093	264.577148	1387.160156	80.684494	297.798950	1447.106934	260.009521	433.719421	1312.589844	218.458939	316.156982	1108.562134	512.453064	226.055939	1092.427490	-22.626051	403.410233	900.244843	501.572708	399.313980	974.625946	38.104276	418.720825	902.584961	341.586761	350.636047	927.246887	84.523239	231.562622	916.934937	298.558228	210.353958	911.835205	217.578110	220.958290	914.385071	258.068169	233.820358	1153.762939	268.123718	461.939270	1163.991089	189.664078	365.142822	629.559875	404.225403	361.798096	451.554718	311.604492	275.023376	259.202545	345.592072	250.045181	69.200729	264.284058	210.746338	59.965137	208.062866	376.461700	40.953632	248.656403	424.950684	739.496460	-39.530693	548.072510	573.344849	-22.043482	518.848877	373.602448	-83.469627	589.632507	167.764084	-55.682461	558.582947	139.695572	-7.769739	723.367859	169.200546	-32.557011
262	2.61000000	382.198242	1392.831055	411.890961	266.099548	1386.391846	80.569572	299.182800	1446.203613	259.789612	435.447418	1312.117554	218.320496	317.050598	1107.098145	511.804474	226.534286	1092.008789	-22.784126	406.091644	899.380157	500.661850	398.982437	973.524567	38.721881	421.507507	902.177734	341.033783	352.353027	927.243225	82.365952	234.362350	916.089478	297.727753	213.553284	910.824097	216.526001	223.957817	913.456787	257.126877	236.063736	1152.617188	267.115479	464.210114	1163.569580	189.561890	369.734467	629.851074	404.158386	363.887909	451.035767	310.994232	277.173065	259.004425	345.534332	250.892838	69.454224	263.925629	210.840103	59.943241	207.817993	376.471558	40.940071	248.480057	428.989777	737.134399	-38.555576	551.986084	570.642883	-18.936769	524.270386	370.348572	-79.379150	596.865845	165.143951	-50.365593	565.767334	137.064041	-2.104738	729.938538	167.217117	-26.518393
263	2.62000000	382.840851	1391.905762	411.861267	267.826691	1385.659302	80.117340	300.303528	1445.117432	259.846375	437.219910	1311.656128	218.407272	318.629883	1105.843262	511.171753	227.278030	1091.505737	-23.004091	409.261444	898.680603	499.885880	398.639984	972.296967	39.558398	424.281738	901.666016	340.539856	353.879578	927.593872	79.876144	237.539566	915.121704	296.826294	216.883667	909.843445	215.488007	227.211617	912.482574	256.157150	238.375870	1151.368652	266.048157	466.532440	1163.088135	189.611557	374.293274	630.090820	404.090118	365.944916	450.465515	310.382721	278.764130	258.642731	345.242889	251.169952	69.489555	263.741028	210.927048	59.877728	207.509079	376.469330	40.918743	247.894608	433.578461	734.142151	-37.603741	555.898132	567.931885	-15.398529	529.059570	366.891083	-75.321533	606.438965	161.812119	-43.412365	567.151733	135.788910	1.809756	736.125061	165.183884	-20.452013
264	2.63000000	383.863159	1390.834717	411.639465	269.720428	1384.935547	79.674500	301.567139	1444.721436	259.664917	438.997040	1311.352905	218.318771	320.918762	1104.789185	510.969238	228.074661	1090.906738	-23.061586	412.332230	897.712891	499.177246	397.926682	970.574188	39.870449	427.400635	901.090271	340.070526	354.831940	927.028687	76.014412	240.628265	914.163025	296.029968	220.234283	908.858154	214.525162	230.431274	911.510590	255.277565	240.760468	1150.158691	265.024567	469.033661	1162.791260	189.456268	376.983124	629.695312	403.395752	368.114502	450.039886	309.837402	280.059418	258.634155	345.242157	251.000290	69.237343	263.232819	210.971832	59.897190	207.267517	376.052002	40.159328	248.854507	437.587646	731.377930	-36.312206	559.095825	564.483826	-12.338397	533.723633	363.193451	-70.702530	613.257751	158.747360	-37.795338	571.965149	133.139557	7.346526	741.737976	162.486771	-13.928390
265	2.64000000	384.839355	1389.806030	411.493378	271.630829	1384.012329	79.489296	303.227844	1444.074341	259.121796	440.793213	1310.942383	218.003769	323.531342	1103.647583	510.588776	229.117188	1090.211304	-23.208004	414.236557	896.808899	497.625870	397.820175	968.789337	40.096177	430.557129	900.612305	339.566010	356.492462	926.640015	72.852539	243.737198	913.508118	295.135162	223.561966	907.905945	213.586136	233.649582	910.707031	254.360649	243.105438	1149.071899	264.193665	471.553131	1162.572754	189.127197	379.746887	629.223206	403.014679	370.358063	449.537689	309.605499	281.062164	258.779358	345.149902	250.936630	69.286736	263.024506	211.026230	59.924999	207.151215	375.862915	39.978237	247.524521	441.304901	728.039062	-35.573853	561.863464	560.985291	-8.852870	537.853271	359.248505	-66.354752	618.266663	155.787598	-32.124241	581.943481	128.865387	14.374018	747.185669	159.735092	-7.493058
266	2.65000000	385.926910	1388.770020	411.358551	273.751007	1383.203857	79.154419	304.881897	1443.278198	258.728882	442.724701	1310.375732	217.952667	326.381958	1102.794922	510.113373	230.423203	1089.513550	-23.205643	415.350433	895.443970	495.814743	398.330261	966.730255	39.872929	433.606689	899.977600	339.043091	358.677826	925.982544	69.740181	246.810547	912.710449	293.943878	226.939270	906.977417	212.326019	236.874908	909.843933	253.134949	245.967102	1147.900146	263.077820	474.194763	1162.445435	188.953888	382.580994	628.706848	402.624725	372.671936	448.991333	309.364624	281.820160	258.718872	345.137024	251.022812	69.291168	262.980469	211.058945	59.952881	207.073837	375.872345	39.930302	247.361267	444.641022	724.772278	-34.630283	564.692261	557.571960	-5.202894	541.632263	355.305481	-61.960133	621.131287	152.733749	-26.953119	589.128723	124.441345	21.275566	752.103088	156.655380	-0.891535
267	2.66000000	386.952087	1387.685547	411.165314	275.811646	1382.426147	78.676384	306.684570	1442.330566	257.998840	444.806946	1310.031616	217.766541	328.984802	1101.776001	509.514526	231.686462	1088.648438	-23.262537	416.263626	894.090210	494.191711	399.229324	964.930634	38.906985	436.331635	899.225403	338.350861	360.594788	925.184998	67.215645	249.858780	912.236145	292.948914	230.317932	906.082642	211.249100	240.088356	909.159393	252.099007	248.511703	1146.812744	261.916809	476.868591	1162.239014	188.607300	385.285278	628.225952	402.296539	374.856018	448.480347	309.185547	283.371216	258.844208	345.128967	250.953674	69.128998	262.859070	211.141510	60.015434	207.008911	375.938385	39.868359	247.382919	448.762726	721.555847	-33.015026	567.083435	553.875427	-1.405082	545.114075	351.286652	-57.524780	627.922119	149.203918	-20.361799	588.606750	122.821297	24.445036	756.595764	153.481277	5.662135
268	2.67000000	388.375916	1386.804688	410.822296	277.821075	1381.668823	78.088219	308.383698	1441.535400	257.593597	446.970825	1309.688599	217.514648	331.429016	1100.423096	508.891907	233.246017	1087.624756	-22.928480	418.447586	892.984650	492.889633	400.556366	963.106384	37.760497	439.142517	898.747314	337.574402	363.086548	924.598511	64.351204	253.064026	911.757019	292.045868	233.956131	905.392639	210.267654	243.510078	908.574829	251.156761	251.290833	1145.784912	261.087250	479.630402	1162.137573	188.424255	388.001587	627.622620	401.837677	377.052155	447.846863	308.875793	284.988678	258.922180	345.155792	251.037567	69.071953	262.777283	211.159760	60.087479	206.994736	375.891113	39.857491	247.438843	452.369690	718.336304	-32.038475	568.878113	549.832153	2.384213	548.408936	347.033020	-52.983978	631.423218	146.212418	-15.281570	590.354675	120.984550	28.810726	760.938354	150.252609	12.299282
